<mxfile host="app.diagrams.net" agent="Mozilla/5.0 (Windows NT 10.0; Win64; x64) AppleWebKit/537.36 (KHTML, like Gecko) Chrome/137.0.0.0 Safari/537.36" version="26.2.5">
  <diagram name="Page-1" id="_PTiMc083y3oWvTNH1tt">
    <mxGraphModel dx="927" dy="546" grid="1" gridSize="10" guides="1" tooltips="1" connect="1" arrows="1" fold="1" page="1" pageScale="1" pageWidth="850" pageHeight="1100" math="0" shadow="0">
      <root>
        <mxCell id="0" />
        <mxCell id="1" parent="0" />
        <mxCell id="5T3mx0N7RC8kMU_LT-rZ-25" value="" style="edgeStyle=orthogonalEdgeStyle;rounded=0;orthogonalLoop=1;jettySize=auto;html=1;endArrow=diamondThin;endFill=0;entryX=0;entryY=0.531;entryDx=0;entryDy=0;entryPerimeter=0;" edge="1" parent="1" target="5T3mx0N7RC8kMU_LT-rZ-14">
          <mxGeometry relative="1" as="geometry">
            <mxPoint x="520" y="160" as="sourcePoint" />
            <mxPoint x="640" y="160" as="targetPoint" />
          </mxGeometry>
        </mxCell>
        <mxCell id="5T3mx0N7RC8kMU_LT-rZ-26" value="Agregasi" style="edgeLabel;html=1;align=center;verticalAlign=middle;resizable=0;points=[];" vertex="1" connectable="0" parent="5T3mx0N7RC8kMU_LT-rZ-25">
          <mxGeometry x="-0.1889" y="2" relative="1" as="geometry">
            <mxPoint x="9" y="2" as="offset" />
          </mxGeometry>
        </mxCell>
        <mxCell id="5T3mx0N7RC8kMU_LT-rZ-1" value="Rumah" style="swimlane;fontStyle=1;align=center;verticalAlign=top;childLayout=stackLayout;horizontal=1;startSize=26;horizontalStack=0;resizeParent=1;resizeParentMax=0;resizeLast=0;collapsible=1;marginBottom=0;whiteSpace=wrap;html=1;" vertex="1" parent="1">
          <mxGeometry x="361" y="80" width="160" height="220" as="geometry" />
        </mxCell>
        <mxCell id="5T3mx0N7RC8kMU_LT-rZ-2" value="+ thbangun: integer&lt;div&gt;+ pondasi: string&lt;/div&gt;&lt;div&gt;+ modelrumah: string&lt;/div&gt;&lt;div&gt;+ warnarumah: string&lt;/div&gt;&lt;div&gt;+ luasrumah: string&lt;/div&gt;&lt;div&gt;+ hargarumah: string&lt;/div&gt;&lt;div&gt;&lt;div&gt;&lt;br&gt;&lt;/div&gt;&lt;/div&gt;" style="text;strokeColor=none;fillColor=none;align=left;verticalAlign=top;spacingLeft=4;spacingRight=4;overflow=hidden;rotatable=0;points=[[0,0.5],[1,0.5]];portConstraint=eastwest;whiteSpace=wrap;html=1;" vertex="1" parent="5T3mx0N7RC8kMU_LT-rZ-1">
          <mxGeometry y="26" width="160" height="104" as="geometry" />
        </mxCell>
        <mxCell id="5T3mx0N7RC8kMU_LT-rZ-3" value="" style="line;strokeWidth=1;fillColor=none;align=left;verticalAlign=middle;spacingTop=-1;spacingLeft=3;spacingRight=3;rotatable=0;labelPosition=right;points=[];portConstraint=eastwest;strokeColor=inherit;" vertex="1" parent="5T3mx0N7RC8kMU_LT-rZ-1">
          <mxGeometry y="130" width="160" height="8" as="geometry" />
        </mxCell>
        <mxCell id="5T3mx0N7RC8kMU_LT-rZ-4" value="+ tempatberteduh()&lt;div&gt;+ menyimpanbarang()&lt;/div&gt;&lt;div&gt;+ tempatberkumpul()&lt;/div&gt;&lt;div&gt;+ data()&lt;/div&gt;" style="text;strokeColor=none;fillColor=none;align=left;verticalAlign=top;spacingLeft=4;spacingRight=4;overflow=hidden;rotatable=0;points=[[0,0.5],[1,0.5]];portConstraint=eastwest;whiteSpace=wrap;html=1;" vertex="1" parent="5T3mx0N7RC8kMU_LT-rZ-1">
          <mxGeometry y="138" width="160" height="82" as="geometry" />
        </mxCell>
        <mxCell id="5T3mx0N7RC8kMU_LT-rZ-5" value="Pemilik" style="swimlane;fontStyle=1;align=center;verticalAlign=top;childLayout=stackLayout;horizontal=1;startSize=26;horizontalStack=0;resizeParent=1;resizeParentMax=0;resizeLast=0;collapsible=1;marginBottom=0;whiteSpace=wrap;html=1;" vertex="1" parent="1">
          <mxGeometry x="80" y="100" width="160" height="124" as="geometry" />
        </mxCell>
        <mxCell id="5T3mx0N7RC8kMU_LT-rZ-6" value="+ nama: string&lt;div&gt;+ nomorhp: string&lt;/div&gt;&lt;div&gt;+ alamat: string&lt;/div&gt;" style="text;strokeColor=none;fillColor=none;align=left;verticalAlign=top;spacingLeft=4;spacingRight=4;overflow=hidden;rotatable=0;points=[[0,0.5],[1,0.5]];portConstraint=eastwest;whiteSpace=wrap;html=1;" vertex="1" parent="5T3mx0N7RC8kMU_LT-rZ-5">
          <mxGeometry y="26" width="160" height="64" as="geometry" />
        </mxCell>
        <mxCell id="5T3mx0N7RC8kMU_LT-rZ-7" value="" style="line;strokeWidth=1;fillColor=none;align=left;verticalAlign=middle;spacingTop=-1;spacingLeft=3;spacingRight=3;rotatable=0;labelPosition=right;points=[];portConstraint=eastwest;strokeColor=inherit;" vertex="1" parent="5T3mx0N7RC8kMU_LT-rZ-5">
          <mxGeometry y="90" width="160" height="8" as="geometry" />
        </mxCell>
        <mxCell id="5T3mx0N7RC8kMU_LT-rZ-8" value="+ tampildata()" style="text;strokeColor=none;fillColor=none;align=left;verticalAlign=top;spacingLeft=4;spacingRight=4;overflow=hidden;rotatable=0;points=[[0,0.5],[1,0.5]];portConstraint=eastwest;whiteSpace=wrap;html=1;" vertex="1" parent="5T3mx0N7RC8kMU_LT-rZ-5">
          <mxGeometry y="98" width="160" height="26" as="geometry" />
        </mxCell>
        <mxCell id="5T3mx0N7RC8kMU_LT-rZ-10" value="" style="edgeStyle=orthogonalEdgeStyle;rounded=0;orthogonalLoop=1;jettySize=auto;html=1;endArrow=none;startFill=0;" edge="1" parent="1" source="5T3mx0N7RC8kMU_LT-rZ-6" target="5T3mx0N7RC8kMU_LT-rZ-2">
          <mxGeometry relative="1" as="geometry" />
        </mxCell>
        <mxCell id="5T3mx0N7RC8kMU_LT-rZ-12" value="Asosiasi" style="edgeLabel;html=1;align=center;verticalAlign=middle;resizable=0;points=[];" vertex="1" connectable="0" parent="5T3mx0N7RC8kMU_LT-rZ-10">
          <mxGeometry y="-2" relative="1" as="geometry">
            <mxPoint x="-5" y="-2" as="offset" />
          </mxGeometry>
        </mxCell>
        <mxCell id="5T3mx0N7RC8kMU_LT-rZ-13" value="Penghuni" style="swimlane;fontStyle=1;align=center;verticalAlign=top;childLayout=stackLayout;horizontal=1;startSize=26;horizontalStack=0;resizeParent=1;resizeParentMax=0;resizeLast=0;collapsible=1;marginBottom=0;whiteSpace=wrap;html=1;" vertex="1" parent="1">
          <mxGeometry x="628" y="100" width="160" height="124" as="geometry" />
        </mxCell>
        <mxCell id="5T3mx0N7RC8kMU_LT-rZ-14" value="+ nama: string&lt;div&gt;+ nik: string&lt;/div&gt;&lt;div&gt;+ status: string&lt;/div&gt;" style="text;strokeColor=none;fillColor=none;align=left;verticalAlign=top;spacingLeft=4;spacingRight=4;overflow=hidden;rotatable=0;points=[[0,0.5],[1,0.5]];portConstraint=eastwest;whiteSpace=wrap;html=1;" vertex="1" parent="5T3mx0N7RC8kMU_LT-rZ-13">
          <mxGeometry y="26" width="160" height="64" as="geometry" />
        </mxCell>
        <mxCell id="5T3mx0N7RC8kMU_LT-rZ-15" value="" style="line;strokeWidth=1;fillColor=none;align=left;verticalAlign=middle;spacingTop=-1;spacingLeft=3;spacingRight=3;rotatable=0;labelPosition=right;points=[];portConstraint=eastwest;strokeColor=inherit;" vertex="1" parent="5T3mx0N7RC8kMU_LT-rZ-13">
          <mxGeometry y="90" width="160" height="8" as="geometry" />
        </mxCell>
        <mxCell id="5T3mx0N7RC8kMU_LT-rZ-16" value="+ tampildata()" style="text;strokeColor=none;fillColor=none;align=left;verticalAlign=top;spacingLeft=4;spacingRight=4;overflow=hidden;rotatable=0;points=[[0,0.5],[1,0.5]];portConstraint=eastwest;whiteSpace=wrap;html=1;" vertex="1" parent="5T3mx0N7RC8kMU_LT-rZ-13">
          <mxGeometry y="98" width="160" height="26" as="geometry" />
        </mxCell>
        <mxCell id="5T3mx0N7RC8kMU_LT-rZ-27" value="&lt;font style=&quot;font-size: 9px;&quot;&gt;1&lt;/font&gt;" style="text;html=1;align=center;verticalAlign=middle;resizable=0;points=[];autosize=1;strokeColor=none;fillColor=none;" vertex="1" parent="1">
          <mxGeometry x="515" y="130" width="30" height="30" as="geometry" />
        </mxCell>
        <mxCell id="5T3mx0N7RC8kMU_LT-rZ-28" value="&lt;font style=&quot;font-size: 9px;&quot;&gt;0 ... *&lt;/font&gt;" style="text;html=1;align=center;verticalAlign=middle;resizable=0;points=[];autosize=1;strokeColor=none;fillColor=none;" vertex="1" parent="1">
          <mxGeometry x="590" y="130" width="40" height="30" as="geometry" />
        </mxCell>
        <mxCell id="5T3mx0N7RC8kMU_LT-rZ-29" value="&lt;font style=&quot;font-size: 9px;&quot;&gt;1&lt;/font&gt;" style="text;html=1;align=center;verticalAlign=middle;resizable=0;points=[];autosize=1;strokeColor=none;fillColor=none;" vertex="1" parent="1">
          <mxGeometry x="233" y="130" width="30" height="30" as="geometry" />
        </mxCell>
        <mxCell id="5T3mx0N7RC8kMU_LT-rZ-30" value="&lt;font style=&quot;font-size: 9px;&quot;&gt;0 ... *&lt;/font&gt;" style="text;html=1;align=center;verticalAlign=middle;resizable=0;points=[];autosize=1;strokeColor=none;fillColor=none;" vertex="1" parent="1">
          <mxGeometry x="321" y="130" width="40" height="30" as="geometry" />
        </mxCell>
      </root>
    </mxGraphModel>
  </diagram>
</mxfile>
